#N canvas 549 71 646 615 12;
#X obj 251 68 inlet~;
#X obj 251 151 +~;
#X obj 315 150 +~;
#X obj 349 63 delread~ A 101;
#X obj 365 94 delread~ B 143;
#X obj 399 126 delread~ C 165;
#X obj 415 157 delread~ D 177;
#X obj 42 233 outlet~ l;
#X obj 119 232 outlet~ r;
#X obj 258 242 +~;
#X obj 377 239 +~;
#X obj 260 303 +~;
#X obj 310 302 +~;
#X obj 261 351 *~ 0.4;
#X obj 311 376 *~ 0.37;
#X obj 361 411 *~ 0.333;
#X obj 404 441 *~ 0.3;
#X obj 261 552 delwrite~ A 1000;
#X obj 313 525 delwrite~ B 1000;
#X obj 360 501 delwrite~ C 1000;
#X obj 402 477 delwrite~ D 1000;
#X obj 308 241 -~;
#X obj 417 239 -~;
#X obj 359 300 -~;
#X obj 402 300 -~;
#X text 25 21 simple reverb from p234 of Designing Sound;
#X connect 0 0 1 0;
#X connect 0 0 2 0;
#X connect 1 0 7 0;
#X connect 1 0 9 0;
#X connect 1 0 21 0;
#X connect 2 0 8 0;
#X connect 2 0 9 1;
#X connect 2 0 21 1;
#X connect 3 0 1 1;
#X connect 4 0 2 1;
#X connect 5 0 10 0;
#X connect 5 0 22 0;
#X connect 6 0 10 1;
#X connect 6 0 22 1;
#X connect 9 0 11 0;
#X connect 9 0 23 0;
#X connect 10 0 11 1;
#X connect 10 0 23 1;
#X connect 11 0 13 0;
#X connect 12 0 14 0;
#X connect 13 0 17 0;
#X connect 14 0 18 0;
#X connect 15 0 19 0;
#X connect 16 0 20 0;
#X connect 21 0 12 0;
#X connect 21 0 24 0;
#X connect 22 0 12 1;
#X connect 22 0 24 1;
#X connect 23 0 15 0;
#X connect 24 0 16 0;
