#N canvas 926 38 802 964 12;
#X obj 345 878 dac~;
#X obj 535 596 osc~;
#X obj 534 557 mtof;
#X msg 532 505 60;
#X msg 573 506 63;
#X msg 592 290 72;
#X obj 541 287 int;
#X obj 581 285 + 1;
#X obj 296 166 bng 19 250 50 0 empty empty empty 0 -10 0 12 #fcfcfc #000000 #000000;
#X floatatom 535 409 5 0 0 0 - - - 0;
#X obj 560 346 sel 1;
#X msg 560 376 1;
#X obj 560 317 > 4;
#X obj 534 442 sel 1 2 3 4;
#X obj 133 616 vline~;
#X obj 350 759 *~;
#X obj 117 264 int;
#X obj 157 262 + 1;
#X floatatom 111 386 5 0 0 0 - - - 0;
#X obj 136 323 sel 1;
#X msg 136 353 1;
#X obj 136 294 > 3;
#X obj 110 419 sel 1 2 3;
#X obj 295 98 tgl 19 0 empty empty empty 0 -10 0 12 #fcfcfc #000000 #000000 0 1;
#X msg 613 507 67;
#X msg 101 504 0 10 \, 1 25 1 \, 0 25 35;
#X msg 134 532 0 1 \, 1 25 1 \, 0 50 35;
#X msg 195 562 0 10 \, 1 15 1 \, 0 200 35;
#X obj 396 831 *~ 0.5;
#X obj 296 130 metro 200;
#X obj 396 798 reverb;
#X text 22 18 scratchpad for developing and testing new objects;
#X connect 1 0 15 0;
#X connect 2 0 1 0;
#X connect 3 0 2 0;
#X connect 4 0 2 0;
#X connect 5 0 2 0;
#X connect 6 0 7 0;
#X connect 6 0 9 0;
#X connect 6 0 12 0;
#X connect 7 0 6 1;
#X connect 8 0 6 0;
#X connect 8 0 16 0;
#X connect 9 0 13 0;
#X connect 10 0 11 0;
#X connect 11 0 6 0;
#X connect 12 0 10 0;
#X connect 13 0 3 0;
#X connect 13 1 4 0;
#X connect 13 2 24 0;
#X connect 13 3 5 0;
#X connect 14 0 15 1;
#X connect 15 0 0 0;
#X connect 15 0 0 1;
#X connect 15 0 30 0;
#X connect 16 0 17 0;
#X connect 16 0 18 0;
#X connect 16 0 21 0;
#X connect 17 0 16 1;
#X connect 18 0 22 0;
#X connect 19 0 20 0;
#X connect 20 0 16 0;
#X connect 21 0 19 0;
#X connect 22 0 25 0;
#X connect 22 1 26 0;
#X connect 22 2 27 0;
#X connect 23 0 29 0;
#X connect 24 0 2 0;
#X connect 25 0 14 0;
#X connect 26 0 14 0;
#X connect 27 0 14 0;
#X connect 28 0 0 1;
#X connect 28 0 0 0;
#X connect 29 0 8 0;
#X connect 30 0 28 0;
